<svg width="16" height="16" viewBox="0 0 16 16" fill="none" xmlns="http://www.w3.org/2000/svg">
<path fill-rule="evenodd" clip-rule="evenodd" d="M8 0.761905C4.00251 0.761905 0.761905 4.00251 0.761905 8C0.761905 11.9975 4.00251 15.2381 8 15.2381C11.9975 15.2381 15.2381 11.9975 15.2381 8C15.2381 4.00251 11.9975 0.761905 8 0.761905ZM0 8C0 3.58172 3.58172 0 8 0C12.4183 0 16 3.58172 16 8C16 12.4183 12.4183 16 8 16C3.58172 16 0 12.4183 0 8Z" fill="#111111"/>
<path fill-rule="evenodd" clip-rule="evenodd" d="M8.26112 4.59548C7.81777 4.51943 7.36181 4.60275 6.97399 4.83067C6.58618 5.05859 6.29155 5.4164 6.14228 5.84074C6.07246 6.03921 5.85497 6.14351 5.6565 6.07369C5.45802 6.00387 5.35373 5.78638 5.42355 5.58791C5.63253 4.99384 6.04501 4.49289 6.58795 4.1738C7.13089 3.85472 7.76923 3.73808 8.38993 3.84454C9.01062 3.95101 9.57361 4.27371 9.97917 4.75549C10.3847 5.23719 10.6066 5.84684 10.6058 6.47649C10.6056 7.44049 9.88766 8.11123 9.29327 8.50749C8.98446 8.71336 8.67836 8.86614 8.45096 8.96721C8.33672 9.01798 8.241 9.0563 8.17293 9.08223C8.13887 9.0952 8.11165 9.10511 8.09239 9.11195L8.06961 9.11994L8.06294 9.12221L8.06084 9.12292L8.05981 9.12327C8.05968 9.12331 8.05957 9.12335 7.9391 8.76194L8.05981 9.12327C7.86021 9.1898 7.64423 9.08201 7.5777 8.88241C7.51121 8.68295 7.61889 8.46737 7.81822 8.40068L7.82171 8.39949L7.83715 8.39408C7.85138 8.38902 7.87326 8.38107 7.9017 8.37023C7.95864 8.34854 8.04148 8.31543 8.14153 8.27097C8.3427 8.18156 8.60803 8.04862 8.87064 7.87354C9.41906 7.50793 9.84386 7.0359 9.84386 6.47623C9.84453 6.0264 9.68598 5.59029 9.39629 5.24616C9.1066 4.90203 8.70447 4.67153 8.26112 4.59548Z" fill="#111111"/>
<path fill-rule="evenodd" clip-rule="evenodd" d="M7.61914 11.8097C7.61914 11.5993 7.7897 11.4287 8.00009 11.4287H8.00819C8.21858 11.4287 8.38914 11.5993 8.38914 11.8097C8.38914 12.0201 8.21858 12.1906 8.00819 12.1906H8.00009C7.7897 12.1906 7.61914 12.0201 7.61914 11.8097Z" fill="#111111"/>
</svg>
