<svg width="512" height="512" viewBox="0 0 512 512" fill="none" xmlns="http://www.w3.org/2000/svg">
<path opacity="0.992" fill-rule="evenodd" clip-rule="evenodd" d="M110.5 7.5C217.834 7.33333 325.167 7.5 432.5 8C448.667 12.1667 458.833 22.3333 463 38.5C463.667 183.167 463.667 327.833 463 472.5C458.833 488.667 448.667 498.833 432.5 503C325.167 503.667 217.833 503.667 110.5 503C94.3333 498.833 84.1667 488.667 80 472.5C79.5002 461.505 79.3335 450.505 79.5 439.5C73.1579 439.666 66.8246 439.5 60.5 439C47.2961 432.318 43.7961 422.151 50 408.5C52.5962 404.61 56.0962 401.777 60.5 400C66.8246 399.5 73.1579 399.334 79.5 399.5C79.5 386.167 79.5 372.833 79.5 359.5C73.1579 359.666 66.8246 359.5 60.5 359C47.2961 352.318 43.7961 342.151 50 328.5C52.5962 324.61 56.0962 321.777 60.5 320C66.8246 319.5 73.1579 319.334 79.5 319.5C79.5 306.167 79.5 292.833 79.5 279.5C73.1579 279.666 66.8246 279.5 60.5 279C47.2961 272.318 43.7961 262.151 50 248.5C52.5962 244.61 56.0962 241.777 60.5 240C66.8246 239.5 73.1579 239.334 79.5 239.5C79.5 226.167 79.5 212.833 79.5 199.5C73.1579 199.666 66.8246 199.5 60.5 199C47.2961 192.318 43.7961 182.151 50 168.5C52.5962 164.61 56.0962 161.777 60.5 160C66.8246 159.5 73.1579 159.334 79.5 159.5C79.5 146.167 79.5 132.833 79.5 119.5C73.1579 119.666 66.8246 119.5 60.5 119C47.2961 112.318 43.7961 102.151 50 88.5C52.5962 84.6099 56.0962 81.7766 60.5 80C66.8246 79.5005 73.1579 79.3338 79.5 79.5C79.3334 65.8293 79.5001 52.1626 80 38.5C84.3489 22.3186 94.5156 11.9852 110.5 7.5Z" fill="black"/>
<path fill-rule="evenodd" clip-rule="evenodd" d="M447.5 342.5C406.374 339.343 366.874 329.677 329 313.5C327.97 313.164 327.47 312.497 327.5 311.5C339.363 295.712 344.196 278.046 342 258.5C340.829 257.107 339.329 256.273 337.5 256C315.503 255.5 293.503 255.333 271.5 255.5C271.667 233.164 271.5 210.831 271 188.5C270.535 187.069 269.701 185.903 268.5 185C238.455 182.69 214.788 193.856 197.5 218.5C170.095 189.518 148.262 156.518 132 119.5C128.963 114.225 127.463 108.559 127.5 102.5C128.16 93.4903 124.827 86.4903 117.5 81.5C112.078 64.1456 108.078 46.4789 105.5 28.5C107.649 26.2542 110.316 24.7542 113.5 24C184.833 23.5 256.166 23.3333 327.5 23.5C327.333 51.8353 327.5 80.1686 328 108.5C331.173 126.674 341.673 138.174 359.5 143C388.831 143.5 418.165 143.667 447.5 143.5C447.5 209.833 447.5 276.167 447.5 342.5Z" fill="#2B879E"/>
<path fill-rule="evenodd" clip-rule="evenodd" d="M355.5 24.5C379.663 23.3368 403.997 23.1701 428.5 24C437.573 26.7392 443.74 32.5725 447 41.5C447.667 66.1667 447.667 90.8333 447 115.5C416.632 84.9652 386.132 54.6318 355.5 24.5Z" fill="#2B879E"/>
<path fill-rule="evenodd" clip-rule="evenodd" d="M105.5 28.5C108.078 46.4789 112.078 64.1456 117.5 81.5C110.326 79.7037 102.993 79.037 95.5 79.5C95.3334 66.8289 95.5001 54.1623 96 41.5C97.7108 36.0687 100.877 31.7354 105.5 28.5Z" fill="#226C7E"/>
<path fill-rule="evenodd" clip-rule="evenodd" d="M343.5 35.5C374.299 65.7985 404.965 96.2985 435.5 127C410.833 127.667 386.167 127.667 361.5 127C353 123.833 347.167 118 344 109.5C343.5 84.8356 343.333 60.1689 343.5 35.5Z" fill="#4093A7"/>
<path fill-rule="evenodd" clip-rule="evenodd" d="M65.5 95.5C80.1705 95.3334 94.8371 95.5001 109.5 96C112.167 98.3333 112.167 100.667 109.5 103C94.8333 103.667 80.1667 103.667 65.5 103C62.9142 100.506 62.9142 98.006 65.5 95.5Z" fill="#EFEFF1"/>
<path fill-rule="evenodd" clip-rule="evenodd" d="M127.5 102.5C127.463 108.559 128.963 114.225 132 119.5C148.262 156.518 170.095 189.518 197.5 218.5C180.184 246.034 179.017 274.367 194 303.5C216.241 337.032 247.074 349.198 286.5 340C303.387 334.909 317.053 325.409 327.5 311.5C327.47 312.497 327.97 313.164 329 313.5C366.874 329.677 406.374 339.343 447.5 342.5C447.667 384.168 447.5 425.835 447 467.5C444.609 477.558 438.443 484.058 428.5 487C323.5 487.667 218.5 487.667 113.5 487C104.573 483.74 98.7392 477.573 96 468.5C95.5002 458.839 95.3335 449.172 95.5 439.5C103.052 440.127 110.385 439.294 117.5 437C127.444 429.926 129.944 420.759 125 409.5C122.044 404.769 117.877 401.602 112.5 400C106.843 399.501 101.176 399.334 95.5 399.5C95.5 386.167 95.5 372.833 95.5 359.5C103.052 360.127 110.385 359.294 117.5 357C127.444 349.926 129.944 340.759 125 329.5C122.044 324.769 117.877 321.602 112.5 320C106.843 319.501 101.176 319.334 95.5 319.5C95.5 306.167 95.5 292.833 95.5 279.5C103.052 280.127 110.385 279.294 117.5 277C127.444 269.926 129.944 260.759 125 249.5C122.044 244.769 117.877 241.602 112.5 240C106.843 239.501 101.176 239.334 95.5 239.5C95.5 226.167 95.5 212.833 95.5 199.5C103.052 200.127 110.385 199.294 117.5 197C127.444 189.926 129.944 180.759 125 169.5C122.044 164.769 117.877 161.602 112.5 160C106.843 159.501 101.176 159.334 95.5 159.5C95.5 146.167 95.5 132.833 95.5 119.5C103.052 120.127 110.385 119.294 117.5 117C122.722 113.365 126.055 108.532 127.5 102.5Z" fill="#226C7E"/>
<path fill-rule="evenodd" clip-rule="evenodd" d="M284.5 159.5C323.614 160.471 350.114 179.138 364 215.5C366.7 223.99 367.7 232.657 367 241.5C366.727 243.329 365.893 244.829 364.5 246C337.896 247.64 311.229 247.973 284.5 247C283.069 246.535 281.903 245.701 281 244.5C279.36 217.896 279.027 191.229 280 164.5C281.025 162.313 282.525 160.646 284.5 159.5Z" fill="black"/>
<path fill-rule="evenodd" clip-rule="evenodd" d="M65.5 175.5C80.1705 175.333 94.8371 175.5 109.5 176C112.167 178.333 112.167 180.667 109.5 183C94.8333 183.667 80.1667 183.667 65.5 183C62.9142 180.506 62.9142 178.006 65.5 175.5Z" fill="#EFEFF1"/>
<path fill-rule="evenodd" clip-rule="evenodd" d="M295.5 176.5C322.157 180.314 339.99 194.981 349 220.5C350.108 224.086 350.608 227.753 350.5 231.5C332.167 231.5 313.833 231.5 295.5 231.5C295.5 213.167 295.5 194.833 295.5 176.5Z" fill="#FDD45C"/>
<path fill-rule="evenodd" clip-rule="evenodd" d="M327.5 311.5C317.053 325.409 303.387 334.909 286.5 340C247.074 349.198 216.241 337.032 194 303.5C179.017 274.367 180.184 246.034 197.5 218.5C214.788 193.856 238.455 182.69 268.5 185C269.701 185.903 270.535 187.069 271 188.5C271.5 210.831 271.667 233.164 271.5 255.5C293.503 255.333 315.503 255.5 337.5 256C339.329 256.273 340.829 257.107 342 258.5C344.196 278.046 339.363 295.712 327.5 311.5Z" fill="black"/>
<path fill-rule="evenodd" clip-rule="evenodd" d="M311.5 305.5C273.808 286.98 240.141 262.813 210.5 233C209.552 232.517 208.552 232.351 207.5 232.5C218.124 213.849 234.124 203.183 255.5 200.5C255.031 223.233 255.531 245.899 257 268.5C257.903 269.701 259.069 270.535 260.5 271C282.497 271.5 304.497 271.667 326.5 271.5C325.275 284.607 320.275 295.94 311.5 305.5Z" fill="#FDD45C"/>
<path fill-rule="evenodd" clip-rule="evenodd" d="M207.5 232.5C208.552 232.351 209.552 232.517 210.5 233C240.141 262.813 273.808 286.98 311.5 305.5C294.411 323.865 273.411 330.698 248.5 326C213.75 314.35 197.584 290.183 200 253.5C201.417 246.081 203.917 239.081 207.5 232.5Z" fill="#FDC038"/>
<path fill-rule="evenodd" clip-rule="evenodd" d="M65.5 255.5C80.1705 255.333 94.8371 255.5 109.5 256C112.167 258.333 112.167 260.667 109.5 263C94.8333 263.667 80.1667 263.667 65.5 263C62.9142 260.506 62.9142 258.006 65.5 255.5Z" fill="#EFEFF1"/>
<path fill-rule="evenodd" clip-rule="evenodd" d="M65.5 335.5C80.1705 335.333 94.8371 335.5 109.5 336C112.167 338.333 112.167 340.667 109.5 343C94.8333 343.667 80.1667 343.667 65.5 343C62.9142 340.506 62.9142 338.006 65.5 335.5Z" fill="#EFEFF1"/>
<path fill-rule="evenodd" clip-rule="evenodd" d="M335.5 351.5C349.504 351.333 363.504 351.5 377.5 352C380.057 352.685 381.891 354.185 383 356.5C383.5 370.829 383.667 385.163 383.5 399.5C378.167 399.5 372.833 399.5 367.5 399.5C367.666 392.825 367.5 386.158 367 379.5C344.833 401.667 322.667 423.833 300.5 446C296.252 448.348 292.419 447.848 289 444.5C277.7 430.035 265.867 416.035 253.5 402.5C229.162 420.141 204.495 436.975 179.5 453C176.71 449.254 174.043 445.421 171.5 441.5C198.111 421.854 225.111 402.688 252.5 384C255.783 383.257 258.783 383.924 261.5 386C272.623 400.125 284.123 413.959 296 427.5C315.833 407.667 335.667 387.833 355.5 368C348.842 367.5 342.175 367.334 335.5 367.5C335.5 362.167 335.5 356.833 335.5 351.5Z" fill="black"/>
<path fill-rule="evenodd" clip-rule="evenodd" d="M65.5 415.5C80.1705 415.333 94.8371 415.5 109.5 416C112.167 418.333 112.167 420.667 109.5 423C94.8333 423.667 80.1667 423.667 65.5 423C62.9142 420.506 62.9142 418.006 65.5 415.5Z" fill="#EFEFF1"/>
</svg>
